<?xml version="1.0" encoding="UTF-8" standalone="no"?>
<svg xmlns:svg="http://www.w3.org/2000/svg" xmlns="http://www.w3.org/2000/svg" version="1.1" width="280" height="258.59375" id="svg3310">
  <defs id="defs3312"/>
  <g transform="translate(-117.4375,-408.78125)" id="layer1">
    <path d="m 286.03791,627.32012 c 49.42705,-8.86347 99.97905,-37.34264 99.97905,-89.23866 0,-42.48192 -50.44543,-76.92928 -99.9672,-88.35055 l -0.005,-15.51848 c 0,-6.96289 5.64254,-12.5403 12.60543,-12.5403 l 12.17322,-0.005 0,-11.30877 -116.61064,0 0,11.30877 12.1673,0 c 6.96288,0 12.61135,5.51821 12.61135,12.48702 l 0,15.58953 c -49.51585,11.43903 -99.97312,45.88639 -99.97312,88.3387 0,51.86642 50.552,80.33967 99.97904,89.22683 l -0.005,14.69548 c 0,6.96289 -5.64847,12.4811 -12.61136,12.4811 l -12.16729,0 0,11.30877 116.61063,0 0,-11.30877 -12.17321,-0.005 c -6.96289,0 -12.60544,-5.57741 -12.60544,-12.5403 l -0.005,-14.61852 z m -67.04741,-159.04518 0,140.90378 c -27.93445,-10.52723 -45.70285,-35.23483 -45.70285,-71.10318 0,-30.38568 17.62038,-57.59778 45.70285,-69.8006 z m 67.02965,0.005 c 28.01734,12.1969 45.72653,39.40901 45.72653,69.79468 0,35.85651 -17.7684,60.57004 -45.70285,71.09726 l -0.0237,-140.89194 z" id="path120" style="fill:#034ea2;fill-opacity:0;stroke:#84b819;stroke-width:7;stroke-linecap:butt;stroke-linejoin:miter;stroke-miterlimit:3.86400008;stroke-opacity:1;stroke-dasharray:none"/>
  </g>
</svg>